<svg id="cloud2" data-name="Layer 1" xmlns="http://www.w3.org/2000/svg" viewBox="0 0 801 433"><defs><style>.cls-1{fill:#fff;}.cls-2{fill:#cfd1eb;}</style></defs><title>Artboard 1</title><path class="cls-1" d="M219.91,156.06a53.11,53.11,0,0,0-9,4.75C183.24,179,174.71,220.27,141.11,230c-13,3.76-27,2.78-39.49,8.65a38,38,0,0,0,5.58,71c19.46,5.63,40.15-4.75,60.29-2.58,22.11,2.38,39.89,18.35,61.4,23.22a95.68,95.68,0,0,0,45.6-.85,120.11,120.11,0,0,0,21.21-8.06c5.57-2.67,10.55-8.76,17-7.65,7.66,1.31,19.38,14.34,26.2,18.68,19,12.08,40.54,21.82,63.54,21,23.16-.86,44.6-12.31,67.85-12.14,22.21.16,41.12,17.52,63.61,15.16s40.06-21.45,62-26.56c30.43-7.11,61.66,9.54,91.85-.88,44.14-15.23,48.66-77.61,8.27-99.79-16.69-9.16-34.1-8.28-51.22-1.72-6.37,2.44-14.26,3.71-19.46-.71-4.33-3.67-5.17-9.88-6.83-15.3-6.33-20.66-27.94-33.75-49.41-36.09s-42.89,4.08-63.19,11.48c-10.77,3.93-22,8.22-33.36,6.82-19.64-2.43-30-20.88-50.05-22.21-16.47-1.09-28.88,29.51-43,20.44-7.89-5.08-43.46-21.49-48.13-21.78-19.62-1.23-35,6.27-51.35,15.89-3.89-18.1-6.15-28.48-25.44-32.75A58.78,58.78,0,0,0,219.91,156.06Z"/><path d="M219.15,154.76c-20.33,8.69-31.32,28-43.69,45.1-6.43,8.91-13.6,17.68-23.07,23.5-11.79,7.24-25.36,7.25-38.54,9.89-11.86,2.38-22.18,7.94-28.92,18.23a39.23,39.23,0,0,0-5.41,31.33A41.11,41.11,0,0,0,99.18,307.9c11.3,6.21,24.26,5.35,36.58,3.46,15.59-2.39,30-4.9,45.36.41,12.71,4.4,24.13,11.76,36.65,16.61,25.24,9.77,57.85,7.3,81.06-7,5.55-3.43,10.45-8.32,17.26-4.78,5.06,2.63,9.36,6.72,13.64,10.42,9.35,8.07,20.11,14.2,31.42,19.14,12.73,5.56,26.45,9.12,40.42,8.77,14.4-.36,28.18-4.87,42-8.3,14.65-3.63,28.92-5.47,43.53-.79,12,3.83,23.27,10,35.84,11.81,26.22,3.71,45.08-17.18,68.26-24.9,27.87-9.28,56.78,4.54,85.1.48,19.49-2.8,36.31-14.55,44.14-32.82a59.29,59.29,0,0,0-1.11-48.93c-9.69-19.79-31.2-31.79-53.12-30.43a74,74,0,0,0-20.17,4.34c-7,2.48-16,5.36-21.43-1.61-3.69-4.74-4-11.66-6.34-17.11a47.22,47.22,0,0,0-9.13-13.78c-17.69-18.75-44.7-22-68.92-17.6-15.62,2.86-30.08,8.92-45.11,13.74-7.85,2.52-16.11,4.3-24.35,2.84-5.9-1-11.27-3.83-16.29-7-9.16-5.76-17.77-12.85-28.78-14.58-8.34-1.31-14.62,2.52-20.74,7.83-5.4,4.69-12.74,14.58-20.77,13.9-3.14-.27-6.21-2.82-8.94-4.27-3.73-2-7.53-3.85-11.34-5.67-8.16-3.91-16.4-7.71-24.82-11-8-3.16-15.62-3-24.16-1.45-12.86,2.37-24.52,8.55-35.7,15.09l2.2.9c-2.32-10.79-4.46-23-14.56-29.27-13.63-8.51-33-7.26-47.4-1.65-1.78.69-1,3.6.8,2.89,13.63-5.32,32.12-6.78,45.08,1.35,9.3,5.84,11.06,17.59,13.19,27.48a1.51,1.51,0,0,0,2.2.9c12-7,24.63-13.63,38.63-15.35,4.5-.55,9.47-1,13.88.17a75.32,75.32,0,0,1,8.92,3.43c8.51,3.57,16.9,7.46,25.17,11.56,3.16,1.57,6.33,3.14,9.39,4.9,2.39,1.38,4.61,2.87,7.46,3,6.86.41,12.69-5.42,17.32-9.69,6.23-5.75,13.11-13.3,22.37-12.28,11.64,1.28,20.6,9.25,30.21,15.11s19.92,8.44,31.29,6.46c14.45-2.52,28-9.4,42.09-13.3,14.45-4,29.8-6.47,44.74-4,11.84,1.93,23.44,7,32.29,15.21a45.72,45.72,0,0,1,10.61,14.37c2.4,5.22,2.91,11.13,5.54,16.24,5.43,10.54,16.9,8.43,26.19,5.15,14.75-5.21,30.55-6.22,45,.51a52.74,52.74,0,0,1,30.26,45c1,18.12-6.74,36.5-21.73,47.1-22.3,15.76-49.74,8.76-74.76,6.37-12.56-1.2-25.37-1-37.33,3.39-11.09,4.11-20.89,10.86-31.29,16.35-12,6.32-24.41,10-37.92,6.95-12-2.72-23-8.83-34.84-12-27.29-7.38-53.11,8.37-80,10s-54.3-11.41-74.43-28.69c-6-5.17-14-13.29-22.7-10.25-4.47,1.57-8,5.08-12.14,7.24a102.29,102.29,0,0,1-22.65,8.36,93.35,93.35,0,0,1-44.58,0c-13-3.26-24.45-10.39-36.55-15.83-11.51-5.17-23.15-8.14-35.82-7.09-14.17,1.17-28.43,6-42.73,3.77a37.58,37.58,0,0,1-29.14-23.85c-4.61-12.3-1.65-26.22,6.79-36.15,9.59-11.29,23.57-13.17,37.42-15.13,11.24-1.59,21.54-4.34,30.71-11.3,15.91-12.08,24.77-30.71,37.26-45.84,6.92-8.39,14.91-15.35,25-19.66C222.44,156.6,220.91,154,219.15,154.76Z"/><path class="cls-2" d="M192.15,292.52c3,1.07,5.52,3.44,7.86,5.71,10.13,9.84,21.22,20.07,35.14,22.41,27.66,4.65,44.79-22.25,70.52-24.58,20.48-1.85,35.59,12.63,50.66,24.13,18.42,14.06,36.16,20.19,59,12.34,14.48-5,28-13,43-15.81,25.82-4.91,43.08,12.21,67.33,13.59,19.17,1.09,34.5-11.06,51.62-17.35,28.7-10.56,58-.19,87.32-2.57,20.46-1.66,60.39-15.45,49.25-43.6-5-12.52-20-18.56-33.45-17.31s-25.55,8.14-37.18,14.94c-26,15.24-58.3,21.36-88.54,15.79-37.59-6.93-60.6-36.37-101.7-26.73-26.36,6.18-49.19,23.09-77.41,20.23-19.36-2-37.53-11.71-56.82-12.37-18.61-.63-34.8,8.06-52,13.82-27.77,9.31-50.83-4.4-77.32-10.56-8.92-2.08-18.51-2.83-27.06.46-9.67,3.72-19.3,18-13.67,28.15,4.81,8.65,17.7,8.48,26.5,4,4.87-2.5,9.87-6.06,15.25-5.08A10.37,10.37,0,0,1,192.15,292.52Z"/></svg>
