<svg id="cloud1" data-name="Layer 1" xmlns="http://www.w3.org/2000/svg" viewBox="0 0 700 404"><defs><style>.cls-1{fill:#fff;}.cls-2{fill:#cfd1eb;}</style></defs><title>Artboard 5</title><path class="cls-1" d="M212.55,56.7a49.77,49.77,0,0,0-15.85,6.15C176.63,75,175.22,99.44,160,115.71,152.2,124,140.73,128,130.32,131.65c-12.82,4.52-28.57,8.76-33.25,23.3-5,15.41,6.86,28.08,8,42.78,1.09,14.08-8.54,25.17-13.62,37.5C83.3,255,96.4,278.93,115.75,288s42.45,6.15,62.35-1.69c9.16-3.61,20.28-9,30-4.29,8.8,4.21,12.31,14.66,17.21,22.37,14.14,22.2,45.85,31,68.92,17.63,10.63-6.18,20.92-18,34.2-17.47,14,.53,21.62,14.06,30.75,22.67,16.44,15.5,42.71,19.18,62.4,7.72C436.57,326.29,446,310.53,461,302.1c29.19-16.36,65.28,7.82,92.53-13.76,22.25-17.63,19.64-43.4,9.81-66.43,17,.64,34-2.92,43.29-19.09,13.1-22.67-.83-53.06-26.25-58.55-8.95-1.93-19.85.33-24.86-9.34-2.37-4.58-2.94-9.85-4.46-14.78-6-19.57-26.18-29.31-45.68-28.54-15.27.6-29.8,6.61-43.43,13.53,7.56-3.83-7.65-36-10.38-39.84-15.82-22.44-44.8-30-69.85-19.06a59,59,0,0,0-19.4,13.66c-5,5.27-10.14,13.38-18.51,12.31-4.93-.63-8.74-4.68-11.23-9-7.83-13.57-18.84-27.56-36.19-25.89C277.23,39.2,274,61.35,257.06,65c-8.66,1.87-16.71-6.14-24.81-8.11A45.58,45.58,0,0,0,212.55,56.7Z"/><path d="M212.15,55.25c-14.39,3.18-25.41,11.44-32.83,24.06-7.11,12.09-11.22,26.43-21.5,36.43-11.16,10.85-27.46,13.54-41.35,19.36-11.34,4.75-21.17,12.75-22,25.88-1.05,15.8,11.84,28.86,8.6,44.93-2.94,14.58-15.09,25.68-15.51,41-.36,12.86,6.07,25.41,15.32,34.07,10.89,10.19,25.84,14.35,40.52,14.18a93.5,93.5,0,0,0,23.87-3.58c8.35-2.32,16.11-6.35,24.46-8.62,10.44-2.84,18.94.14,24.86,9.14,3.58,5.43,6.07,11.48,10,16.66C242.13,329,272.64,336.32,295,323.35,307.8,316,321,300.1,337.14,308.44c6.34,3.27,11,9.06,15.67,14.26a63.51,63.51,0,0,0,15.05,12.84,56.3,56.3,0,0,0,39.85,6.39c15.12-3.27,25.68-13.59,36.31-24.09,5.79-5.71,11.81-11.43,19.11-15.17s15.55-5.07,23.74-5.18c14.73-.2,29.44,3.15,44.16,1.38a47,47,0,0,0,33.65-20.2c7.38-10.85,8.66-24.15,6.43-36.82a95.51,95.51,0,0,0-6.29-20.35l-1.45,1.9c17.87.55,36.19-4.08,45.22-21,7.57-14.15,5.31-31.86-4.32-44.45a41.06,41.06,0,0,0-17.94-13.51c-8-3-18.78-.85-25.78-5.9-5.35-3.86-5.9-11.29-7.53-17.16a40.23,40.23,0,0,0-5.36-11.91,43.14,43.14,0,0,0-19.32-15.36c-22.54-9.38-46.58-.63-67.1,9.71l1.51,2.59c5.06-3.08,2.37-11.77,1.11-16.16a121.6,121.6,0,0,0-9.19-22.63c-9.92-19-33.25-29.31-54-27.66a61,61,0,0,0-32.9,12.94c-5.09,4-8.74,9.22-13.47,13.57-2.51,2.31-5.52,4.36-9.08,4.31-5.21-.07-8.78-4.28-11.3-8.33C328,53,321.57,43,310.94,38.23a27.37,27.37,0,0,0-28.16,3.19c-8.52,6.69-13.81,19-25,21.85-8.24,2.13-15.17-4.26-22.45-7s-15.61-2.45-23.2-1.05c-1.9.35-1.09,3.24.8,2.89,8-1.47,16.45-1.42,23.95,2.07,5.13,2.39,10.1,5.9,15.88,6.46,8.8.86,15.92-5.6,21.28-11.74C280.7,47.35,287,39.26,298,38.74c13.21-.64,22.92,9.06,29.7,19.29,5.06,7.63,10.51,18.76,21.74,15.12,4.39-1.43,7.69-5,10.66-8.38,4.25-4.8,8.61-9.2,14-12.71,21.28-13.74,50.1-12,68.77,5.47,6.81,6.37,10.59,13.71,14.08,22.19a95,95,0,0,1,4.66,13.73c.58,2.42,2.45,8.68-.37,10.4a1.5,1.5,0,0,0,1.51,2.59c18-9.08,38.74-17.17,59.08-11.4a42.61,42.61,0,0,1,21.06,13.1,35.81,35.81,0,0,1,6.76,12.41c1.41,4.49,2,9.25,3.88,13.58,2.94,6.65,8.52,9.35,15.46,10.26,8.21,1.08,15.66,1.58,22.87,6.16,13.47,8.55,20.93,25.57,17.48,41.24A35.17,35.17,0,0,1,592,215.16c-8.72,4.73-18.9,5.54-28.63,5.25a1.51,1.51,0,0,0-1.45,1.9c5.36,12.77,9.27,27.16,6.15,41a42.73,42.73,0,0,1-29.88,31.14c-26.65,7.38-55.62-8.07-80.6,8-12.77,8.2-21.45,21.25-34.08,29.61s-28.7,10.21-43.17,5.74A51.59,51.59,0,0,1,360.3,326.2c-4.49-4.21-8.22-9.15-12.61-13.45-8.69-8.52-19.46-12.29-31.07-7.13-12.77,5.67-21.66,16.87-35.73,20.09-13.4,3.06-27.85.1-39.36-7.27a49.06,49.06,0,0,1-14.88-14.76c-3.28-5.12-5.62-10.79-9.33-15.64-9.71-12.71-23.61-9.54-36.67-4.31-15.66,6.26-32.49,10.33-49.4,7.55-15.33-2.53-28.77-11.28-36.05-25.18a39,39,0,0,1-4.67-19.84c.39-7.87,4.11-14.62,7.75-21.42,3.33-6.22,6.74-12.6,7.91-19.64,1.1-6.63-.16-13-2.34-19.28-2.34-6.73-5.67-13.38-6.36-20.56a23.85,23.85,0,0,1,8-20.42c10-8.8,24.75-11.12,36.75-16.15,12.81-5.37,21.72-13.56,28.34-25.71,6.2-11.39,10.42-24.35,19.95-33.56,6.17-6,14.07-9.51,22.39-11.34C214.83,57.73,214,54.84,212.15,55.25Z"/><path class="cls-2" d="M382.58,71.46c11.24-3.77,25.07-2.39,32.93,6.5,8.13,9.2,8,23.83,16.8,32.43,9.49,9.32,24.89,7.65,37.91,4.94s28-5.4,38.49,2.73c11.43,8.83,12.28,26.67,23.26,36,8.7,7.43,21.2,7.55,32.55,8.87s24.29,5.76,27.81,16.64-5.1,22.71-15.85,26.48-22.65,1.42-33.53-2-21.68-7.81-33.07-8.17c-8.66-.27-17.82,1.77-25.7-1.84-15.57-7.13-16.35-31.18-31.31-39.52C437,145.73,414,159.56,400,148c-5.42-4.47-7.79-11.65-12.43-16.93-5.17-5.89-12.72-9-19.82-12.29s-14.4-7.45-18-14.38S348,87.1,355.39,84.45C355.39,84.45,371.34,75.23,382.58,71.46Z"/><path class="cls-2" d="M140.29,146.83c-2.86-2.15-6.27-3.64-9.74-3.08-4.15.68-7.39,4.25-8.7,8.25-3.81,11.57,4.27,22,7.12,32.65,5,18.66-8.62,30.75-11.51,48.08-2.84,17,10.15,34,26.7,37.36,20.26,4.09,40.76-8.2,60.83-1,19.23,6.85,27.1,30.86,46.82,38.3,17.11,6.46,37,5.63,53.21-3a19.82,19.82,0,0,0,7-5.42c1.76-2.4,2.52-5.71,1.25-8.4a12.62,12.62,0,0,0-3.84-4.17c-17.14-13.64-35.76-26.48-55.4-36.21-18.72-9.28-39.74-10.39-60.25-8.22-7.42.78-15,1.74-22.27.08-8.53-1.95-17.91-9-16.3-18.79,1-5.81,5.74-10.15,8.36-15.42,8.79-17.72-8.35-47.4-21.38-59.41C141.58,147.85,140.95,147.32,140.29,146.83Z"/></svg>
