<svg id="Layer_1" preserveAspectRatio="none" data-name="Layer 1" xmlns="http://www.w3.org/2000/svg" viewBox="0 0 1160 1602.52"><defs><style>.cls-1{fill:#eb481b;}.cls-1,.cls-2,.cls-3,.cls-4{stroke:#000;stroke-miterlimit:10;stroke-width:2px;}.cls-2{fill:#fdbe9f;}.cls-3{fill:#10139e;}.cls-4{fill:#fff;}.cls-5{fill:#cfd1eb;}</style></defs><title>final-window</title><path class="cls-1" d="M1050.29,1407.78l.6,0c-56.72.07-110.47.46-167.89.46l-3.61-.18c14.13-282,28.13-564.58,16-847.6-3.3-76.22-4.78-165.55-17.56-246.19l.2,0,179,0,18,0c-9.33,363.75-11.3,729.43-5.91,1094l-18.2-.46c5.95,0,11.92,0,17.94,0ZM928,635v714.73h76v-977H928V635Z"/><path class="cls-2" d="M1004,1309.47v40.27H928v-41.43l72.64,1.16Z"/><path class="cls-2" d="M1004,1211.37v98.1h-3.36L928,1308.31v-93.94h1.63A599.68,599.68,0,0,1,1004,1211.37Z"/><path class="cls-2" d="M1004,1115.29v96.08a599.68,599.68,0,0,0-74.37,3H928v-96.09h1.63A601.62,601.62,0,0,1,1004,1115.29Z"/><path class="cls-2" d="M1004,1022.86v92.43a601.62,601.62,0,0,0-74.37,3H928V1018.4h.68Z"/><path class="cls-2" d="M1004,924.76v98.1l-75.32-4.46H928V924.34l74,.42Z"/><path class="cls-2" d="M1004,830.12v94.64h-2l-74-.42V826.82C934.33,827.86,982.3,827.2,1004,830.12Z"/><path class="cls-2" d="M1004,734.9v95.22c-21.7-2.92-69.67-2.26-76-3.3v-97l72.59,5Z"/><path class="cls-2" d="M1004,637.55V734.9h-3.41l-72.59-5V635C936.42,636.84,986,634.82,1004,637.55Z"/><path class="cls-2" d="M1004,541.46v96.09c-18-2.73-67.58-.71-76-2.54V538.93C936.42,540.76,986,538.73,1004,541.46Z"/><path class="cls-2" d="M1004,443.48v98c-18-2.73-67.58-.7-76-2.53v-94.1Z"/><path class="cls-2" d="M1004,372.74v70.74l-76,1.35V372.74Z"/><path class="cls-3" d="M825.43,563.87c11.72,272.91-1.48,551.31-15,821.25-11.85,2-28.54,4.13-51.66,6-40.57,3.29-92.57,5-150.4,5-66.33,0-139.34-2.34-200.33-6.43-32.06-2.14-56.33-4.46-74-6.58-.09-15.25,0-35.64.24-62.9,8.88,12.85,28.23,16.92,44,12.9,17.75-4.54,32.54-16.41,48.26-25.82s34.78-16.66,52.14-10.77c16.55,5.62,28.08,22.11,45.11,26.1,29.06,6.81,52.73-25.1,82-30.83,32-6.27,61.05,19.57,93.1,25.7,38.16,7.3,79.75-18.21,90.55-55.53s-10.76-81.09-46.92-95.3c-19.58-7.68-43.18-8.13-57.94-23.12-12.41-12.6-15-32.28-26.65-45.57-18.63-21.22-52-18.57-79.61-12.86s-59.45,11.84-81.67-5.58c-18.52-14.52-23.39-40.47-38-58.93-27.73-35.09-91.92-28.93-112.47,10.79l-6.06-.15c.95-37.82,1.93-76.22,2.9-114.2,1.36-53.37,2.7-105.54,3.89-154.55l119.14,4.64c19.13.75,38.54,1.54,56.75,7.44,13.66,4.43,26.34,11.64,40.17,15.49,28.76,8,59.31.84,88.29-6.34,30.43-7.54,61.85-15.55,86.52-34.87s40.8-53.29,29.8-82.63c-20.69-55.19-110.71-50.78-137.94-103-6.58-12.63-9.1-28.13-20-37.32-18.26-15.38-49.92-4.64-67-21.31-18.48-18-4.19-51.15-16.13-74-10.58-20.29-37.17-25.22-54.75-39.86-14.55-12.1-22.24-30.28-30.85-47.13s-19.83-34.07-37.49-40.86c-17.23-6.62-41.08,2.6-43.48,20.57l-.14,0c4.53-35.77,11.48-67.94,22.22-92,22.33-49.93,55.43-71.46,114.24-74.32,36.38-1.77,66-2.59,93.22-2.59,27,0,51.57.81,75.06,2.48,50.89,3.61,76.38,6.74,99.44,38,20.64,28,35.93,73.68,45.42,135.89,9.41,61.63,12,128.89,14.47,193.93C824.39,538.22,824.88,551.05,825.43,563.87Z"/><path class="cls-4" d="M742.51,1166.69c36.16,14.21,57.71,58,46.92,95.3s-52.39,62.83-90.55,55.53c-32-6.13-61.08-32-93.1-25.7-29.29,5.73-53,37.64-82,30.83-17-4-28.56-20.48-45.11-26.1-17.36-5.89-36.41,1.35-52.14,10.77s-30.51,21.28-48.26,25.82c-15.74,4-35.09,0-44-12.9.21-20,.54-43.65,1-71.7,1.13-64.11,2.89-139.46,4.82-217.27l6.06.15c20.55-39.72,84.74-45.88,112.47-10.79,14.59,18.46,19.46,44.41,38,58.93,22.22,17.42,54,11.29,81.67,5.58s61-8.36,79.61,12.86c11.67,13.29,14.24,33,26.65,45.57C699.33,1158.56,722.93,1159,742.51,1166.69Z"/><path class="cls-4" d="M359.94,323.25c2.4-18,26.25-27.19,43.48-20.57,17.66,6.79,28.89,24,37.49,40.86s16.3,35,30.85,47.13c17.58,14.64,44.17,19.57,54.75,39.86,11.94,22.89-2.35,56,16.13,74,17.09,16.67,48.75,5.93,67,21.31,10.9,9.19,13.42,24.69,20,37.32,27.23,52.27,117.25,47.86,137.94,103,11,29.34-5.13,63.3-29.8,82.63s-56.09,27.33-86.52,34.87c-29,7.18-59.53,14.35-88.29,6.34-13.83-3.85-26.51-11.06-40.17-15.49-18.21-5.9-37.62-6.69-56.75-7.44l-119.14-4.64c1.72-71.3,3.13-135.92,3.85-187.85.23-16.25.3-33.17.38-51.08.26-61,.57-136.43,8.65-200.36Z"/><path class="cls-1" d="M96.71,1407.78h-.42l-18.38.47C83.3,1043.69,81.33,678,72,314.26l18.48,0,199.52,0,.26,0c-10.79,85.44-8.42,183.85-9.48,259.29-3.14,224.46-19.49,703.73-16.39,834.67H264c-57.36,0-111.06-.39-167.71-.47ZM136,444.34v904.92h76v-977H136Z"/><path class="cls-2" d="M212,1309v40.27H136v-41.44l72.64,1.17Z"/><path class="cls-2" d="M212,1210.88V1309h-3.36L136,1307.82v-93.94h1.63A601.63,601.63,0,0,1,212,1210.88Z"/><path class="cls-2" d="M212,1114.8v96.08a601.63,601.63,0,0,0-74.37,3H136V1117.8h1.63A601.63,601.63,0,0,1,212,1114.8Z"/><path class="cls-2" d="M212,1022.38v92.42a601.63,601.63,0,0,0-74.37,3H136v-99.88h.68Z"/><path class="cls-2" d="M212,924.27v98.11l-75.32-4.46H136V923.86l74,.41Z"/><path class="cls-2" d="M212,829.63v94.64h-2l-74-.41V826.34C142.33,827.38,190.3,826.71,212,829.63Z"/><path class="cls-2" d="M212,734.42v95.21c-21.7-2.92-69.67-2.25-76-3.29v-97l72.59,5Z"/><path class="cls-2" d="M212,637.06v97.36h-3.41l-72.59-5V634.52C144.42,636.36,194,634.33,212,637.06Z"/><path class="cls-2" d="M212,541v96.08c-18.05-2.73-67.58-.7-76-2.54V538.44C144.42,540.28,194,538.25,212,541Z"/><path class="cls-2" d="M212,443v98c-18.05-2.73-67.58-.7-76-2.54v-94.1Z"/><path class="cls-2" d="M212,372.26V443l-76,1.34V372.26Z"/><path class="cls-5" d="M348.59,696c2.36-12.11,14.47-18.31,24.67-16.35s18.86,9.79,27.13,17.25,17.13,15.06,27.4,16.46c16.72,2.27,33.13-12.44,49.55-8,14.29,3.86,23.72,21,37.63,26.55,8,3.18,16.66,2.18,25.07,1.74s17.33-.14,24.51,5.18,11.58,17.26,7.3,26c-3.48,7.08-11.27,9.52-18,8.34s-12.91-5.21-19.22-8.36c-11.94-6-24.75-8.9-37.46-11.79-25.6-5.83-51.19-1.66-76.79-7.49-24.37-5.55-50.58-10.87-73.16,1.48C348.12,732.16,348.59,696,348.59,696Z"/><path class="cls-5" d="M445.19,430.32c-12.09,9.3-15.32,27.13-10.43,41.58s16.46,25.77,29.3,34,27.14,13.86,40.78,20.67c10.4,5.19,21,11.64,26.28,22,2.93,5.75,4,12.24,6,18.36,5.94,17.83,20,31.57,33.55,44.57,18,17.26,37.21,35.2,61.46,41.07,7.52,1.82,15.55,2.38,22.92,0s13.94-8,16-15.52c3.35-12.36-6.33-24.65-17.23-31.37s-23.72-10.49-33.23-19.07c-10.86-9.8-16.2-24.82-27.76-33.78-12.56-9.73-29.92-10.41-43.9-18C512,515,512.18,457.57,477.55,434,477.55,434,457.28,421,445.19,430.32Z"/><path class="cls-5" d="M332,1090.7c3.07.09,6.06,3,9.11,1.94,12.13-4.09,16.75-29.42,33.92-37.86s39.13-10.09,54.8.81c16.23,11.28,21.93,32.64,36.47,46,34.09,31.24,92.2,3,134.91,21.34,26.53,11.37,42.93,39.14,69.43,50.58,14.95,6.46,31.74,7.1,47.59,10.93s32.3,12.44,37.57,27.65c7.05,20.38-11.18,43-32.65,47.06s-43.39-5.8-60.46-19.26-30.89-30.51-47.59-44.4-37.84-24.85-59.57-22.42c-24.21,2.7-45.52,21.53-69.77,19.24-20.15-1.9-35.92-17.88-55.19-24-31.45-9.94-66.69,7.78-98.25-1.79"/><path class="cls-1" d="M334.28,1320.24c-.28,27.26-.33,47.65-.24,62.9,17.68,2.12,41.95,4.44,74,6.58,61,4.09,134,6.43,200.33,6.43,57.83,0,109.83-1.74,150.4-5,23.12-1.87,39.81-4,51.66-6,13.51-269.94,26.71-548.34,15-821.25-.55-12.82-1-25.65-1.56-39.23-2.49-65-5.06-132.3-14.47-193.93C799.91,268.5,784.62,222.78,764,194.82c-23.06-31.23-48.55-34.36-99.44-38-23.49-1.67-48-2.48-75.06-2.48-27.22,0-56.84.82-93.22,2.59-58.81,2.86-91.91,24.39-114.24,74.32-10.74,24-17.69,56.18-22.22,92-8.08,63.93-8.39,139.37-8.65,200.36-.08,17.91-.15,34.83-.38,51.08-.72,51.93-2.13,116.55-3.85,187.85-1.19,49-2.53,101.18-3.89,154.55-1,38-1.95,76.38-2.9,114.2-1.93,77.81-3.69,153.16-4.82,217.27C334.82,1276.59,334.49,1300.26,334.28,1320.24ZM895.36,560.48c12.16,283-1.84,565.56-16,847.6q-.63,12.69-1.27,25.39c-3,59.27-620.27,35.48-611.07,8,0-.1-.08-.18-.12-.28-1.29-3-2.11-14.5-2.54-32.89-3.1-130.94,13.25-610.21,16.39-834.67,1.06-75.44-1.31-173.85,9.48-259.29,5.44-43.07,14.23-82.85,28.49-114.72,40.7-91,110-113.51,174.29-116.64,58.71-2.85,117.49-4.19,176.19,0,53.16,3.77,106.64,7.68,149.9,66.27,31.13,42.17,48.48,100.88,58.67,165.11C890.58,394.93,892.06,484.26,895.36,560.48Z"/><path d="M359.35,201.88c5.15,0,5.16-8,0-8s-5.16,8,0,8Z"/><path d="M377.48,203.9c5.15,0,5.16-8,0-8s-5.16,8,0,8Z"/><path d="M776.42,1412.8c5.15,0,5.16-8,0-8s-5.16,8,0,8Z"/><path d="M802.62,1408.77c5.15,0,5.16-8,0-8s-5.16,8,0,8Z"/><path d="M828.81,1402.73c5.15,0,5.16-8,0-8s-5.16,8,0,8Z"/><path d="M832.84,1378.55c5.15,0,5.16-8,0-8s-5.16,8,0,8Z"/><path d="M834.85,1352.35c5.15,0,5.16-8,0-8s-5.16,8,0,8Z"/><path d="M796.57,1439c5.15,0,5.16-8,0-8s-5.16,8,0,8Z"/><path d="M826.79,1432.95c5.15,0,5.16-8,0-8s-5.16,8,0,8Z"/><path d="M844.93,1428.92c5.15,0,5.16-8,0-8s-5.16,8,0,8Z"/><path d="M853,1402.73c5.15,0,5.16-8,0-8s-5.16,8,0,8Z"/><path d="M853,1374.52c5.15,0,5.16-8,0-8s-5.16,8,0,8Z"/><path d="M758.29,1435c5.15,0,5.16-8,0-8s-5.16,8,0,8Z"/><path d="M726.05,1430.93c5.15,0,5.16-8,0-8s-5.16,8,0,8Z"/><path d="M744.19,1416.83c5.15,0,5.16-8,0-8s-5.16,8,0,8Z"/><path d="M778.44,1459.14c5.15,0,5.16-8,0-8s-5.16,8,0,8Z"/><path d="M343,219.81l2-2a4,4,0,0,0-5.66-5.66l-2,2a4,4,0,0,0,5.66,5.66Z"/><path d="M345.25,244.19c5.15,0,5.16-8,0-8s-5.16,8,0,8Z"/><path d="M95.41,1362.43c5.15,0,5.16-8,0-8s-5.16,8,0,8Z"/><path d="M93.39,1395.61c5.15,0,5.16-8,0-8s-5.16,8,0,8Z"/><path d="M113.54,1396.68c5.15,0,5.16-8,0-8s-5.16,8,0,8Z"/><path d="M143.76,1394.67c5.15,0,5.16-8,0-8s-5.16,8,0,8Z"/><path d="M113.54,1372.5c5.15,0,5.16-8,0-8s-5.16,8,0,8Z"/><path d="M95.41,1330.19c5.15,0,5.16-8,0-8s-5.16,8,0,8Z"/><path d="M99.41,1342.31v-4a4,4,0,0,0-8,0v4a4,4,0,0,0,8,0Z"/><path d="M802.62,1447.05c5.15,0,5.16-8,0-8s-5.16,8,0,8Z"/><path d="M772.39,1422.87c5.15,0,5.16-8,0-8s-5.16,8,0,8Z"/><path d="M756.27,1457.13c5.15,0,5.16-8,0-8s-5.16,8,0,8Z"/><path d="M718,1451.08c5.15,0,5.16-8,0-8s-5.16,8,0,8Z"/><path d="M828.81,1445c5.15,0,5.16-8,0-8s-5.16,8,0,8Z"/><path d="M859,1435c5.15,0,5.16-8,0-8s-5.16,8,0,8Z"/><path d="M849,1348.33c5.15,0,5.16-8,0-8s-5.16,8,0,8Z"/><path d="M357.34,226.09c5.15,0,5.16-8,0-8s-5.16,8,0,8Z"/><path d="M342.19,195.79c5.15,0,5.16-8,0-8s-5.16,8,0,8Z"/><path d="M869.11,1400.71c5.15,0,5.16-8,0-8s-5.16,8,0,8Z"/><path d="M818.73,1418.84c5.15,0,5.16-8,0-8s-5.16,8,0,8Z"/><path d="M792.54,1418.84c5.15,0,5.16-8,0-8s-5.16,8,0,8Z"/><path d="M734.11,1441c5.15,0,5.16-8,0-8s-5.16,8,0,8Z"/><path d="M742.17,1459.14c5.15,0,5.16-8,0-8s-5.16,8,0,8Z"/><path d="M699.86,1463.17c5.15,0,5.16-8,0-8s-5.16,8,0,8Z"/><path d="M814.69,1394.65c5.15,0,5.16-8,0-8s-5.16,8,0,8Z"/><path d="M859,1418.84c5.15,0,5.16-8,0-8s-5.16,8,0,8Z"/><path d="M863.06,1364.44c5.15,0,5.16-8,0-8s-5.16,8,0,8Z"/><path d="M832.84,1332.21c5.15,0,5.16-8,0-8s-5.16,8,0,8Z"/><path d="M857,1340.27c5.15,0,5.16-8,0-8s-5.16,8,0,8Z"/><path d="M163.91,1398.7c5.15,0,5.16-8,0-8s-5.16,8,0,8Z"/><path d="M123.61,1380.56c5.15,0,5.16-8,0-8s-5.16,8,0,8Z"/><path d="M101.45,1382.58c5.15,0,5.16-8,0-8s-5.16,8,0,8Z"/></svg>
