<svg preserveAspectRatio="none" width="414px" height="156px" viewBox="0 0 414 156" version="1.1" xmlns="http://www.w3.org/2000/svg" xmlns:xlink="http://www.w3.org/1999/xlink">
    <g id="squiggle2" stroke="none" stroke-width="1" fill="none" fill-rule="evenodd">
        <g id="Projects" transform="translate(0.000000, -580.000000)" fill="#10139E">
            <path d="M-29.7481654,606.749444 C-16.1729054,597.307957 -0.296508107,591.191112 16.1569197,589.307435 C32.007528,587.493067 49.4930559,588.799176 64.2427932,595.30823 C70.1189406,597.901106 76.9723865,602.046699 79.0736585,608.524055 C81.3447087,615.524713 76.4942141,621.501868 71.480926,625.783928 C64.9063245,631.400573 57.0814903,635.698752 49.9207247,640.514324 C41.5763481,646.126133 33.3168606,651.863127 25.146023,657.723156 C12.3336898,666.912125 -4.80207386,677.859586 -6.08185655,695.287088 C-7.31758291,712.111771 9.11596583,722.252249 23.3338035,725.943848 C39.323028,730.094814 56.6387779,729.281921 72.2314954,723.870514 C80.0934014,721.142245 87.615214,717.341043 94.3123136,712.387392 C101.663811,706.950196 107.957419,700.380967 114.117783,693.66184 C125.2001,681.57375 137.807195,666.89332 155.081038,664.487415 C161.645431,663.573515 168.661133,664.874251 174.282076,668.424009 C180.650365,672.44603 183.633301,679.300013 183.431287,686.709536 C182.933235,704.928978 168.194781,718.933518 165.207547,736.574318 C162.942406,749.946489 168.463954,767.523353 183.51134,770.44504 C192.091579,772.111122 200.560066,768.771437 207.088462,763.27729 C213.871525,757.568234 218.298112,749.589203 222.93907,742.17968 C232.816285,726.4102 243.891079,711.411168 256.083937,697.35505 C262.081508,690.440892 268.251007,683.512228 274.940047,677.25408 C279.66482,672.833941 286.174411,669.199293 291.650828,674.519901 C296.306293,679.043197 298.712736,685.623708 301.226096,691.470306 C304.461012,698.994805 308.742536,706.272159 315.011429,711.683028 C327.782392,722.705707 347.203175,723.854396 358.369843,709.9788 C363.075275,704.131666 365.872852,697.148737 368.5302,690.201806 C371.268678,683.042652 374.142547,676.088199 378.156509,669.525955 C395.8462,640.608346 427.982607,623.215766 461.860851,624.111399 C470.498041,624.33974 478.983183,625.781779 487.243745,628.302124 C492.54716,629.920388 494.813912,621.62544 489.528764,620.013086 C455.36899,609.59054 417.489141,617.724306 390.716861,641.336888 C378.578268,652.043651 369.158272,665.551214 363.090855,680.533053 C358.371993,692.184878 353.900275,710.938906 338.420385,711.774902 C330.170568,712.2203 322.825518,708.049455 317.472674,702.026095 C312.267579,696.168752 309.561876,688.920949 306.365643,681.901486 C303.572901,675.767985 300.061827,669.277735 294.143235,665.640939 C287.114101,661.321806 278.899207,663.22375 272.651267,667.977536 C265.51253,673.408822 259.462843,680.629225 253.509866,687.294625 C247.160919,694.403813 241.111769,701.768742 235.311915,709.331924 C229.638319,716.730164 224.246791,724.344388 219.152912,732.153104 C214.359906,739.499766 210.275561,747.666842 204.246829,754.106589 C199.149189,759.552381 191.107834,764.367953 183.454927,761.525782 C177.617463,759.357888 174.650108,753.203971 173.592756,747.439576 C172.164686,739.655575 174.884358,731.825368 178.152586,724.857483 C182.001605,716.650648 186.78118,708.855364 189.585204,700.188624 C192.239329,691.985013 193.254774,682.650981 189.966667,674.473696 C187.152972,667.477335 181.67172,662.053034 174.806991,658.982523 C159.490432,652.132838 142.85648,656.940888 129.916814,666.57042 C115.289037,677.456632 105.25279,693.122418 90.8957989,704.266521 C78.0480057,714.23937 61.7939059,719.67764 45.5774152,719.966693 C37.5102712,720.110145 29.4114281,719.049569 21.7343438,716.522777 C15.2548395,714.390881 8.35465094,710.732593 4.7264509,704.715143 C-4.26963698,689.792942 14.4720337,676.022652 24.8451505,668.493317 C32.9826772,662.587083 41.2093911,656.802272 49.5209941,651.143182 C57.266312,645.869854 65.3501114,641.011838 72.9197413,635.492976 C79.0983731,630.987948 85.2168304,625.467475 87.4363024,617.877429 C89.6332089,610.362601 87.0763299,602.740855 81.9271119,597.096272 C76.6962285,591.361965 69.3592376,587.77997 62.1023002,585.359558 C54.0829734,582.685016 45.7251651,581.083408 37.3061077,580.377432 C20.608221,578.975688 3.40744733,581.494421 -12.1729129,587.666068 C-19.9069481,590.729595 -27.2546845,594.574853 -34.0871767,599.32649 C-38.5970406,602.463623 -34.304772,609.918276 -29.7481654,606.749444" id="Page-1"></path>
        </g>
    </g>
</svg>
