<svg preserveAspectRatio="none" width="414px" height="213px" viewBox="0 0 414 213" version="1.1" xmlns="http://www.w3.org/2000/svg" xmlns:xlink="http://www.w3.org/1999/xlink">
    <g id="squiggle1" stroke="none" stroke-width="1" fill="none" fill-rule="evenodd">
        <g id="Projects" transform="translate(0.000000, -8.000000)" fill="#10139E">
            <path d="M-58.477006,37.8500501 C-42.1415451,27.3141732 -23.0370663,20.4883064 -3.23823175,18.3862871 C15.8352145,16.3616097 36.8760017,17.8191137 54.6247414,25.0826514 C61.6956614,27.9760755 69.9425898,32.6021966 72.4711047,39.8303609 C75.203918,47.6424861 69.3671926,54.3124702 63.3345736,59.0908767 C55.4231858,65.3585634 46.0073608,70.1549564 37.3906266,75.5287153 C27.3496229,81.7910059 17.4107683,88.1929916 7.57858841,94.7322739 C-7.83882301,104.986363 -28.4587299,117.202776 -29.9987255,136.650351 C-31.4857069,155.425232 -11.7107934,166.741122 5.39789781,170.860624 C24.6381445,175.492741 45.4746335,174.585623 64.2377532,168.546964 C73.6981876,165.502454 82.749379,161.260644 90.8081718,155.732801 C99.6544183,149.665364 107.227679,142.334676 114.640605,134.836715 C127.976243,121.347459 143.146686,104.965379 163.932747,102.280598 C171.831851,101.260764 180.274026,102.712273 187.037852,106.673494 C194.700979,111.161719 198.290422,118.810167 198.047333,127.078549 C197.448015,147.40986 179.712852,163.037707 176.118236,182.723304 C173.392535,197.645482 180.036756,217.259732 198.143664,220.52008 C208.468487,222.379282 218.658836,218.652484 226.514623,212.521495 C234.676858,206.150686 240.003484,197.246782 245.588069,188.9784 C257.473577,171.381033 270.800163,154.64342 285.472144,138.958016 C292.689176,131.242418 300.113092,123.510632 308.162188,116.527084 C313.847629,111.594593 321.680788,107.538643 328.270702,113.475978 C333.872743,118.523583 336.768478,125.86686 339.792869,132.391154 C343.685528,140.78784 348.837595,148.908733 356.381116,154.946792 C371.748746,167.247142 395.118276,168.528978 408.555416,153.045022 C414.217583,146.520129 417.583979,138.727789 420.781636,130.975618 C424.076916,122.986626 427.535118,115.226062 432.365221,107.903169 C453.651684,75.6336364 492.322252,56.2250319 533.088818,57.2244803 C543.482172,57.4792887 553.692562,59.0884785 563.63271,61.9009635 C570.014446,63.7068055 572.742087,54.4503665 566.382332,52.6511195 C525.276993,41.0204659 479.695194,50.0970402 447.479418,76.446625 C432.872734,88.3944401 421.53741,103.467705 414.236331,120.186132 C408.558002,133.188554 403.177069,154.116416 384.549717,155.049315 C374.6225,155.546341 365.784011,150.892041 359.342796,144.170496 C353.079371,137.634211 349.823528,129.546293 345.977418,121.713184 C342.61684,114.868731 338.391874,107.626178 331.269879,103.567829 C322.811541,98.748054 312.926347,100.870458 305.408039,106.175269 C296.817812,112.236111 289.538068,120.293452 282.374697,127.731458 C274.734845,135.664692 267.455748,143.883312 260.476633,152.323165 C253.649448,160.578956 247.161684,169.075767 241.032087,177.789614 C235.264539,185.987849 230.349742,195.101595 223.095212,202.287791 C216.961091,208.364821 207.284721,213.73858 198.07578,210.566965 C191.051409,208.147784 187.480714,201.280548 186.208375,194.847986 C184.489942,186.161718 187.762594,177.423889 191.695337,169.648336 C196.32696,160.490223 202.078346,151.791365 205.452501,142.120038 C208.646278,132.965522 209.868189,122.549555 205.911526,113.424417 C202.525733,105.617088 195.930001,99.5640404 187.669496,96.1376171 C169.238684,88.4939652 149.222621,93.8593304 133.651986,104.605049 C116.050005,116.753114 103.97313,134.234768 86.6969914,146.670616 C71.2369101,157.799447 51.6779321,163.868083 32.1642101,164.19064 C22.4568074,164.35072 12.7112604,163.16721 3.47322662,160.34753 C-4.3237282,157.968519 -12.6269032,153.886189 -16.99281,147.171239 C-27.8180349,130.519362 -5.26569861,115.152917 7.21654076,106.750836 C17.0086368,100.159992 26.908054,93.7046467 36.9096205,87.3895957 C46.2297615,81.505021 55.9572061,76.0838978 65.0659372,69.9253291 C72.5008443,64.8981096 79.863342,58.7377423 82.5340899,50.2679117 C85.1776843,41.882018 82.1009258,33.3768141 75.9047388,27.0779509 C69.6102817,20.678963 60.7814911,16.681769 52.049031,13.9808001 C42.399168,10.9962445 32.3420014,9.20898859 22.2111322,8.42118103 C2.11813398,6.85695734 -18.5800011,9.66764367 -37.3282509,16.5546645 C-46.6348151,19.9732937 -55.476536,24.2642668 -63.6982503,29.5666793 C-69.1250861,33.0674467 -63.9600884,41.3861909 -58.477006,37.8500501" id="Page-1-Copy-2"></path>
        </g>
    </g>
</svg>
