<svg preserveAspectRatio="none" width="414px" height="213px" viewBox="0 0 414 213" version="1.1" xmlns="http://www.w3.org/2000/svg" xmlns:xlink="http://www.w3.org/1999/xlink">
    <g id="squiggle3" stroke="none" stroke-width="1" fill="none" fill-rule="evenodd">
        <g id="Projects" transform="translate(0.000000, -318.000000)" fill="#10139E">
            <path d="M-58.477006,347.85005 C-42.1415451,337.314173 -23.0370663,330.488306 -3.23823175,328.386287 C15.8352145,326.36161 36.8760017,327.819114 54.6247414,335.082651 C61.6956614,337.976075 69.9425898,342.602197 72.4711047,349.830361 C75.203918,357.642486 69.3671926,364.31247 63.3345736,369.090877 C55.4231858,375.358563 46.0073608,380.154956 37.3906266,385.528715 C27.3496229,391.791006 17.4107683,398.192992 7.57858841,404.732274 C-7.83882301,414.986363 -28.4587299,427.202776 -29.9987255,446.650351 C-31.4857069,465.425232 -11.7107934,476.741122 5.39789781,480.860624 C24.6381445,485.492741 45.4746335,484.585623 64.2377532,478.546964 C73.6981876,475.502454 82.749379,471.260644 90.8081718,465.732801 C99.6544183,459.665364 107.227679,452.334676 114.640605,444.836715 C127.976243,431.347459 143.146686,414.965379 163.932747,412.280598 C171.831851,411.260764 180.274026,412.712273 187.037852,416.673494 C194.700979,421.161719 198.290422,428.810167 198.047333,437.078549 C197.448015,457.40986 179.712852,473.037707 176.118236,492.723304 C173.392535,507.645482 180.036756,527.259732 198.143664,530.52008 C208.468487,532.379282 218.658836,528.652484 226.514623,522.521495 C234.676858,516.150686 240.003484,507.246782 245.588069,498.9784 C257.473577,481.381033 270.800163,464.64342 285.472144,448.958016 C292.689176,441.242418 300.113092,433.510632 308.162188,426.527084 C313.847629,421.594593 321.680788,417.538643 328.270702,423.475978 C333.872743,428.523583 336.768478,435.86686 339.792869,442.391154 C343.685528,450.78784 348.837595,458.908733 356.381116,464.946792 C371.748746,477.247142 395.118276,478.528978 408.555416,463.045022 C414.217583,456.520129 417.583979,448.727789 420.781636,440.975618 C424.076916,432.986626 427.535118,425.226062 432.365221,417.903169 C453.651684,385.633636 492.322252,366.225032 533.088818,367.22448 C543.482172,367.479289 553.692562,369.088479 563.63271,371.900964 C570.014446,373.706806 572.742087,364.450366 566.382332,362.65112 C525.276993,351.020466 479.695194,360.09704 447.479418,386.446625 C432.872734,398.39444 421.53741,413.467705 414.236331,430.186132 C408.558002,443.188554 403.177069,464.116416 384.549717,465.049315 C374.6225,465.546341 365.784011,460.892041 359.342796,454.170496 C353.079371,447.634211 349.823528,439.546293 345.977418,431.713184 C342.61684,424.868731 338.391874,417.626178 331.269879,413.567829 C322.811541,408.748054 312.926347,410.870458 305.408039,416.175269 C296.817812,422.236111 289.538068,430.293452 282.374697,437.731458 C274.734845,445.664692 267.455748,453.883312 260.476633,462.323165 C253.649448,470.578956 247.161684,479.075767 241.032087,487.789614 C235.264539,495.987849 230.349742,505.101595 223.095212,512.287791 C216.961091,518.364821 207.284721,523.73858 198.07578,520.566965 C191.051409,518.147784 187.480714,511.280548 186.208375,504.847986 C184.489942,496.161718 187.762594,487.423889 191.695337,479.648336 C196.32696,470.490223 202.078346,461.791365 205.452501,452.120038 C208.646278,442.965522 209.868189,432.549555 205.911526,423.424417 C202.525733,415.617088 195.930001,409.56404 187.669496,406.137617 C169.238684,398.493965 149.222621,403.85933 133.651986,414.605049 C116.050005,426.753114 103.97313,444.234768 86.6969914,456.670616 C71.2369101,467.799447 51.6779321,473.868083 32.1642101,474.19064 C22.4568074,474.35072 12.7112604,473.16721 3.47322662,470.34753 C-4.3237282,467.968519 -12.6269032,463.886189 -16.99281,457.171239 C-27.8180349,440.519362 -5.26569861,425.152917 7.21654076,416.750836 C17.0086368,410.159992 26.908054,403.704647 36.9096205,397.389596 C46.2297615,391.505021 55.9572061,386.083898 65.0659372,379.925329 C72.5008443,374.89811 79.863342,368.737742 82.5340899,360.267912 C85.1776843,351.882018 82.1009258,343.376814 75.9047388,337.077951 C69.6102817,330.678963 60.7814911,326.681769 52.049031,323.9808 C42.399168,320.996245 32.3420014,319.208989 22.2111322,318.421181 C2.11813398,316.856957 -18.5800011,319.667644 -37.3282509,326.554665 C-46.6348151,329.973294 -55.476536,334.264267 -63.6982503,339.566679 C-69.1250861,343.067447 -63.9600884,351.386191 -58.477006,347.85005" id="Page-1-Copy"></path>
        </g>
    </g>
</svg>
